<svg xmlns="http://www.w3.org/2000/svg" viewBox="0 0 70.95 99.85"><defs><style>.cls-1{fill:#ef172f;}.cls-2{fill:#001d30;}</style></defs><g id="Layer_2" data-name="Layer 2"><g id="Layer_1-2" data-name="Layer 1"><path class="cls-1" d="M30.72,3.52h-.23V23H28V0h3.91l7.82,19.23H40V0h2.5V23H38.55Z"/><path class="cls-2" d="M51.11,63.18A15.67,15.67,0,0,0,36.66,48.87v-20H34.29v20A15.69,15.69,0,0,0,19.84,63.18H0v2.37H19.82A15.64,15.64,0,0,0,34.29,80.16V99.85h2.37V80.16A15.63,15.63,0,0,0,51.13,65.55H71V63.18ZM34.29,77.78a13.31,13.31,0,0,1-12.1-12.23h12.1Zm0-14.6H22.22A13.37,13.37,0,0,1,34.29,51.24Zm2.37-11.94A13.37,13.37,0,0,1,48.74,63.18H36.66Zm0,26.54V65.55h12.1A13.31,13.31,0,0,1,36.66,77.78Z"/></g></g></svg>