<?xml version="1.0" standalone="no"?>
<!DOCTYPE svg PUBLIC "-//W3C//DTD SVG 20010904//EN"
 "http://www.w3.org/TR/2001/REC-SVG-20010904/DTD/svg10.dtd">
<svg version="1.0" xmlns="http://www.w3.org/2000/svg"
 width="352.000000pt" height="352.000000pt" viewBox="0 0 352.000000 352.000000"
 preserveAspectRatio="xMidYMid meet">
<metadata>
Created by potrace 1.11, written by Peter Selinger 2001-2013
</metadata>
<g transform="translate(0.000000,352.000000) scale(0.100000,-0.100000)"
fill="#000000" stroke="none">
<path d="M1621 3038 c-74 -128 -153 -264 -176 -303 -23 -38 -44 -77 -48 -85
-4 -8 -18 -33 -32 -55 -14 -22 -32 -53 -40 -70 -9 -16 -21 -39 -28 -50 -22
-35 -162 -276 -307 -530 -10 -16 -41 -70 -70 -120 -29 -49 -62 -106 -72 -125
-10 -19 -23 -42 -28 -50 -5 -8 -37 -62 -70 -120 -33 -58 -65 -112 -70 -120 -6
-8 -13 -21 -17 -29 -3 -8 -36 -64 -71 -125 -36 -61 -78 -136 -95 -166 -16 -30
-36 -62 -43 -71 -8 -8 -14 -18 -14 -22 0 -3 -31 -59 -69 -124 -106 -182 -256
-444 -281 -488 -12 -22 -26 -44 -30 -50 -4 -5 -19 -31 -33 -57 l-27 -48 1761
0 1761 0 -20 33 c-11 17 -95 163 -186 322 -92 160 -171 297 -176 305 -10 16
-62 106 -90 155 -48 84 -205 356 -273 472 -42 73 -77 137 -77 143 0 5 -4 10
-8 10 -5 0 -16 16 -26 36 -9 20 -53 97 -96 171 -44 74 -80 136 -80 139 0 2
-11 21 -24 42 -19 31 -243 416 -313 542 -26 45 -189 328 -257 443 -80 138
-104 180 -117 205 -7 12 -15 22 -18 22 -3 0 -67 -105 -140 -232z"/>
</g>
</svg>
