<?xml version="1.0" encoding="UTF-8" standalone="no"?>
<!DOCTYPE svg PUBLIC "-//W3C//DTD SVG 1.1//EN" "http://www.w3.org/Graphics/SVG/1.1/DTD/svg11.dtd">
<svg width="100%" height="100%" viewBox="0 0 1097 139" version="1.1" xmlns="http://www.w3.org/2000/svg" xmlns:xlink="http://www.w3.org/1999/xlink" xml:space="preserve" xmlns:serif="http://www.serif.com/" style="fill-rule:evenodd;clip-rule:evenodd;stroke-linejoin:round;stroke-miterlimit:2;">
    <g transform="matrix(1,0,0,1,-24628.6,-12896.9)">
        <g transform="matrix(8.33333,0,0,8.33333,18000,9843.75)">
            <g transform="matrix(1,0,0,1,799.516,370.412)">
                <path d="M0,10.453C1.044,10.453 1.82,10.104 2.329,9.406C2.837,8.708 3.091,7.708 3.091,6.406L3.091,4.047C3.091,2.746 2.837,1.746 2.329,1.048C1.82,0.349 1.044,-0 0,-0L-1.83,-0L-1.83,10.453L0,10.453ZM-4.087,-1.871L0.143,-1.871C1.959,-1.871 3.305,-1.267 4.179,-0.061C5.054,1.146 5.491,2.909 5.491,5.227C5.491,7.545 5.054,9.307 4.179,10.514C3.305,11.721 1.959,12.324 0.143,12.324L-4.087,12.324L-4.087,-1.871Z" style="fill:rgb(5,38,62);fill-rule:nonzero;"/>
            </g>
        </g>
        <g transform="matrix(8.33333,0,0,8.33333,18000,9843.75)">
            <g transform="matrix(1,0,0,1,812.47,370.168)">
                <path d="M0,10.941C1.017,10.941 1.735,10.557 2.156,9.788C2.576,9.019 2.786,7.975 2.786,6.654L2.786,4.266C2.786,2.96 2.576,1.922 2.156,1.154C1.735,0.385 1.017,0 0,0C-1.017,0 -1.735,0.385 -2.155,1.154C-2.576,1.922 -2.786,2.96 -2.786,4.266L-2.786,6.675C-2.786,7.982 -2.576,9.019 -2.155,9.788C-1.735,10.557 -1.017,10.941 0,10.941M0,12.812C-0.895,12.812 -1.671,12.646 -2.328,12.314C-2.986,11.982 -3.528,11.504 -3.955,10.88C-4.382,10.256 -4.697,9.49 -4.901,8.582C-5.104,7.674 -5.206,6.637 -5.206,5.471C-5.206,4.318 -5.104,3.285 -4.901,2.369C-4.697,1.454 -4.382,0.685 -3.955,0.061C-3.528,-0.562 -2.986,-1.04 -2.328,-1.372C-1.671,-1.705 -0.895,-1.871 0,-1.871C0.895,-1.871 1.671,-1.705 2.329,-1.372C2.986,-1.04 3.528,-0.562 3.956,0.061C4.383,0.685 4.698,1.454 4.901,2.369C5.104,3.285 5.206,4.318 5.206,5.471C5.206,6.637 5.104,7.674 4.901,8.582C4.698,9.49 4.383,10.256 3.956,10.88C3.528,11.504 2.986,11.982 2.329,12.314C1.671,12.646 0.895,12.812 0,12.812" style="fill:rgb(5,38,62);fill-rule:nonzero;"/>
            </g>
        </g>
        <g transform="matrix(8.33333,0,0,8.33333,18000,9843.75)">
            <g transform="matrix(1,0,0,1,825.424,370.29)">
                <path d="M0,10.697C0.759,10.697 1.342,10.541 1.749,10.229C2.155,9.918 2.359,9.416 2.359,8.724L2.359,7.992C2.359,7.301 2.155,6.8 1.749,6.488C1.342,6.176 0.759,6.02 0,6.02L-2.522,6.02L-2.522,10.697L0,10.697ZM-0.326,4.352C0.393,4.352 0.938,4.214 1.312,3.935C1.684,3.657 1.871,3.193 1.871,2.542L1.871,1.81C1.871,1.159 1.684,0.695 1.312,0.417C0.938,0.139 0.393,0 -0.326,0L-2.522,0L-2.522,4.352L-0.326,4.352ZM-4.759,-1.749L0.142,-1.749C1.43,-1.749 2.43,-1.416 3.142,-0.752C3.854,-0.088 4.209,0.821 4.209,1.973C4.209,2.8 4.006,3.457 3.599,3.946C3.192,4.434 2.644,4.78 1.952,4.983L1.952,5.084C2.779,5.274 3.443,5.637 3.945,6.173C4.446,6.708 4.697,7.464 4.697,8.44C4.697,9.023 4.603,9.558 4.413,10.047C4.223,10.534 3.952,10.958 3.599,11.318C3.247,11.677 2.823,11.955 2.328,12.151C1.833,12.348 1.288,12.446 0.691,12.446L-4.759,12.446L-4.759,-1.749Z" style="fill:rgb(5,38,62);fill-rule:nonzero;"/>
            </g>
        </g>
        <g transform="matrix(8.33333,0,0,8.33333,18000,9843.75)">
            <g transform="matrix(1,0,0,1,836.547,368.541)">
                <path d="M0,14.195L0,8.846L-4.718,0L-2.176,0L-0.366,3.539L1.098,6.569L1.22,6.569L2.705,3.539L4.515,0L6.996,0L2.278,8.846L2.278,14.195L0,14.195Z" style="fill:rgb(5,38,62);fill-rule:nonzero;"/>
            </g>
        </g>
        <g transform="matrix(8.33333,0,0,8.33333,18000,9843.75)">
            <g transform="matrix(1,0,0,1,861.601,374.784)">
                <path d="M0,1.709L-4.718,1.709L-4.718,7.952L-6.996,7.952L-6.996,-6.243L-4.718,-6.243L-4.718,-0.203L0,-0.203L0,-6.243L2.277,-6.243L2.277,7.952L0,7.952L0,1.709Z" style="fill:rgb(5,38,62);fill-rule:nonzero;"/>
            </g>
        </g>
        <g transform="matrix(8.33333,0,0,8.33333,18000,9843.75)">
            <g transform="matrix(1,0,0,1,871.85,370.168)">
                <path d="M0,10.941C1.017,10.941 1.735,10.557 2.156,9.788C2.576,9.019 2.786,7.975 2.786,6.654L2.786,4.266C2.786,2.96 2.576,1.922 2.156,1.154C1.735,0.385 1.017,0 0,0C-1.017,0 -1.735,0.385 -2.155,1.154C-2.576,1.922 -2.786,2.96 -2.786,4.266L-2.786,6.675C-2.786,7.982 -2.576,9.019 -2.155,9.788C-1.735,10.557 -1.017,10.941 0,10.941M0,12.812C-0.895,12.812 -1.671,12.646 -2.328,12.314C-2.986,11.982 -3.528,11.504 -3.955,10.88C-4.382,10.256 -4.697,9.49 -4.901,8.582C-5.104,7.674 -5.206,6.637 -5.206,5.471C-5.206,4.318 -5.104,3.285 -4.901,2.369C-4.697,1.454 -4.382,0.685 -3.955,0.061C-3.528,-0.562 -2.986,-1.04 -2.328,-1.372C-1.671,-1.705 -0.895,-1.871 0,-1.871C0.895,-1.871 1.671,-1.705 2.329,-1.372C2.986,-1.04 3.528,-0.562 3.956,0.061C4.383,0.685 4.698,1.454 4.901,2.369C5.104,3.285 5.206,4.318 5.206,5.471C5.206,6.637 5.104,7.674 4.901,8.582C4.698,9.49 4.383,10.256 3.956,10.88C3.528,11.504 2.986,11.982 2.329,12.314C1.671,12.646 0.895,12.812 0,12.812" style="fill:rgb(5,38,62);fill-rule:nonzero;"/>
            </g>
        </g>
        <g transform="matrix(8.33333,0,0,8.33333,18000,9843.75)">
            <g transform="matrix(1,0,0,1,885.048,376.106)">
                <path d="M0,-0.935C1.41,-0.935 2.115,-1.581 2.115,-2.875L2.115,-3.753C2.115,-5.047 1.41,-5.694 0,-5.694L-2.725,-5.694L-2.725,-0.935L0,-0.935ZM-2.725,6.63L-4.982,6.63L-4.982,-7.565L0.326,-7.565C1.681,-7.565 2.715,-7.186 3.427,-6.428C4.139,-5.671 4.495,-4.629 4.495,-3.303C4.495,-2.221 4.23,-1.329 3.701,-0.625C3.172,0.079 2.413,0.512 1.424,0.674L4.698,6.63L2.176,6.63L-0.833,0.875L-2.725,0.875L-2.725,6.63Z" style="fill:rgb(5,38,62);fill-rule:nonzero;"/>
            </g>
        </g>
        <g transform="matrix(8.33333,0,0,8.33333,18000,9843.75)">
            <g transform="matrix(1,0,0,1,895.928,368.541)">
                <path d="M0,14.195L0,8.846L-4.718,0L-2.176,0L-0.366,3.539L1.098,6.569L1.22,6.569L2.705,3.539L4.515,0L6.996,0L2.278,8.846L2.278,14.195L0,14.195Z" style="fill:rgb(5,38,62);fill-rule:nonzero;"/>
            </g>
        </g>
        <g transform="matrix(8.33333,0,0,8.33333,18000,9843.75)">
            <g transform="matrix(1,0,0,1,917.732,382.513)">
                <path d="M0,-16.132L-9.313,0L9.314,0L0,-16.132Z" style="fill:rgb(245,52,64);fill-rule:nonzero;"/>
            </g>
        </g>
    </g>
</svg>
