<svg width="144" height="70" viewBox="0 0 144 70" fill="none" xmlns="http://www.w3.org/2000/svg">
<path fill-rule="evenodd" clip-rule="evenodd" d="M65.925 0.144238L65.7139 0.0547108L65.5731 0L65.4273 0.0646582L65.3317 0.253659L63.1444 2.64601L62.9534 2.81015L62.5964 2.95438L62.3349 2.99417L61.5606 2.98423L61.0728 3.08867L60.6605 3.2926L60.2934 3.64076L59.9515 4.18289L59.5442 5.43129L59.5895 5.47606L59.6699 5.59045L59.7202 5.77448L59.6599 6.02814L59.5493 6.11269L59.2375 6.11766L59.1671 6.13756L58.9861 6.88362L58.9207 7.36109L58.7397 7.66946L57.9604 7.97783L57.3268 8.10217L57.0704 8.08228L56.824 7.96291L56.3262 7.59983L56.0949 7.52025L55.5418 7.64957L54.5663 8.2116L53.9277 8.26133L53.435 8.17181L53.2942 7.73909L53.3998 6.47577L53.3344 5.90877L53.2137 5.38653L53.1835 4.83942L53.4048 4.19284L52.6757 3.75018L50.1767 3.52139L49.1459 3.54626L48.6732 3.73028L47.6374 4.67031L46.9335 4.7101L46.1993 4.49126L45.3747 4.07844L45.1987 4.04363L45.0278 4.07844L44.3037 4.45644L43.1875 4.29231L42.6695 4.62058L42.5388 4.93392L42.4785 5.65013L42.3477 5.98835L42.1416 6.19724L41.3119 6.6399L40.2359 7.94301L39.6727 8.31107L38.9386 8.14694L38.9185 8.61447L38.8732 9.96732L38.2799 10.4299L37.3444 11.1561L33.9504 12.4692L33.2062 13.1655L32.5978 14.1453L32.1252 15.3091L31.8084 16.5625L31.7179 17.5871V17.8159L31.7531 19.5219L31.5821 20.3575L31.0592 21.2378L30.32 21.9242L29.4803 22.3072L28.1277 22.2027L27.5193 22.2972L26.9863 22.6354L26.6545 23.2969L26.4986 23.8639L26.3025 25.0377L26.0963 25.56L25.6337 26.0076L25.151 26.0374L24.618 25.9479L23.9945 26.0524L23.5873 26.3856L22.7174 27.8727L22.2749 28.2408L20.2234 29.0416L17.4227 30.1358L16.5025 29.9915L15.7282 29.1808L15.3611 29.0067L14.7627 29.1808L14.3001 29.4792L13.8075 29.8026L13.3701 29.8822L10.4889 28.4348L9.27712 28.1215L8.15079 28.3602L6.79318 29.34L6.56188 29.6932L6.41606 30.4094L6.05403 30.862L5.18415 31.608L4.56568 32.6575L3.28851 36.3082L2.99687 36.8304L2.59965 37.3129L2.53931 38.0341L2.7706 39.7948L2.63988 40.2722L2.5845 40.4612L2.17219 40.8989L1.74982 41.2321L1.56378 41.5853L1.43304 42.0876L0.774345 43.0326L0.517906 43.5399L0.412314 44.0771L0.186044 46.0815L0.120677 46.3202L0.0603386 46.4297L0.0150846 46.6037L0 47.0166L0.0804515 47.2404L0.271524 47.3597L0.784402 47.4145L0.925192 47.494L1.19169 47.7129L1.44813 47.9964L1.56378 48.2948L1.50846 48.4639L1.4079 48.6828L1.36265 48.8718L1.46824 48.9464L1.53863 49.0259L1.62411 49.2149L1.70457 49.4338L1.73473 49.6029L1.82021 49.8217L2.01129 49.9461L2.24258 50.0505L2.51914 50.3042L2.68004 50.3539L2.77055 50.4832L2.79569 50.6474L2.76049 51.0751L2.77055 51.2591L3.16778 52.602L3.28845 53.2785V54.0892L3.46947 54.6761L4.10302 55.3674L4.44997 55.5763L4.85726 55.641L5.12375 55.8101L5.50087 56.4915L5.62155 56.7054L5.94838 57.0585L5.69194 57.3718L5.56121 57.7498L5.41539 58.4462L5.51595 58.5058L5.81765 58.7545L5.68188 59.3713L6.26013 59.6846L7.0747 59.9731L7.66803 60.4953L8.58819 59.9432L9.4983 60.1372L10.5442 60.4307L10.8057 60.5003L12.4499 60.749L13.2444 61.4006L15.8339 64.8424L16.0803 65.0712L16.3418 65.1756L16.9753 65.3099L17.2116 65.4641L18.0614 66.7324L18.3732 67.0457L18.6346 67.0358L18.886 66.9164L19.1676 66.8716L19.5447 67.0606L20.0677 67.4337L20.5353 67.8763L20.7364 68.2543L20.9979 68.5478L22.0739 69.1246L22.6471 69.433L24.7589 70L26.2171 69.9105L31.9996 69.5375L35.107 69.8608L36.0422 69.7712L37.9328 69.0103L43.0968 68.4134L44.2282 68.493L45.1483 68.8959L45.9026 69.0401L46.6367 68.9655L47.2501 68.5875L48.0848 67.6375L48.5223 67.3142L49.0955 67.165L49.719 66.9511L49.7542 66.9362L48.7837 66.2349L48.0496 65.5137L47.8837 64.8174L47.944 64.0365L48.2005 62.4997L48.115 62.067L47.939 61.9177L47.9088 61.7785L48.2357 61.3806L48.467 61.2463L48.9547 61.1617L49.1961 60.9578L49.8698 59.5652L50.3123 59.2071L52.7108 58.6699L53.9276 58.4013L54.2997 58.2272L54.8679 58.2571L55.3608 58.277L56.8743 58.0581L60.0018 58.4411L60.2784 58.3814L61.7868 57.4215L65.1909 57.4961L66.5435 56.5411L66.5787 56.3521L66.5938 56.1532L66.5787 55.9493L66.5435 55.7453L66.5335 55.7205L66.5285 55.6956L66.5335 55.6807L66.5435 55.6608L66.8402 55.0689L67.0816 53.6216L67.3581 53.0794L67.7905 52.8258L70.1136 52.214L70.3801 52.224L70.6315 52.2986L70.9181 52.5373L71.4662 53.2087L71.7226 53.343L72.8841 53.1192L73.4775 53.2137L73.925 53.7559L73.935 54.1189L73.7942 54.4422L73.7289 54.7605L73.9702 55.1137L74.2065 55.1485L75.1167 54.8003L75.7402 54.9993L76.7005 55.8597L77.2235 56.0587L77.8168 55.8398L78.9582 54.7854L79.5415 54.4273L80.5019 54.1289L80.5823 54.0791L81.588 53.4674L82.0657 53.2834L82.2768 53.1192L82.4579 52.786L82.5986 52.1145L82.6992 51.8509L83.0109 51.4779L83.2272 51.4331L83.4886 51.5276L83.9311 51.5774L84.3535 51.3884L85.1127 50.6921L85.3994 50.5677L85.9022 50.8214L86.1888 51.1297L86.4905 51.2591L87.0687 50.9606L87.8028 50.2295L88.4314 49.2696L88.9593 48.1903L89.9398 45.206L90.2315 44.6241L90.6086 44.1268L91.3729 43.321L91.4331 43.2613L91.77 42.7589L91.7951 42.6246L91.8052 42.4953L91.8002 42.361L91.7851 42.2267L91.7348 41.5752L91.7449 41.2618L91.77 40.9783L92.4991 40.6849L94.0629 40.5804L99.4028 39.3569L99.8101 39.3519L100.202 39.5559L100.952 40.2323L101.319 40.3268L102.108 40.4113L103.486 41.2419L104.381 41.3215L105.014 41.2768L105.758 41.4061L106.462 41.7244L106.97 42.2218L107.609 42.371L109.56 41.4409L110.4 41.2519L110.857 41.4508L111.169 41.7144L111.455 41.8388L111.828 41.6299L112.124 41.2071L112.265 40.8092L112.476 40.4561L112.969 40.1676L113.391 40.0781L114.251 40.0632L115.564 39.6504L115.931 39.7598L116.775 40.2621L117.233 40.4412L117.449 40.6351L117.615 40.9634L117.846 41.6896L118.017 41.9582L118.42 42.1372L119.35 42.1273L119.777 42.2218L119.998 42.6495L120.325 44.2063L120.531 44.6091L121.944 46.7628L122.543 47.4541L123.211 47.9415L124.001 48.2101L124.765 48.1455L126.072 47.4839L127.164 47.3198L127.933 46.8821L128.3 46.7379L129.617 46.6732L130.08 46.5141L130.538 46.4842L132.046 46.6334L132.514 46.4942L132.956 46.151L133.434 45.5392L133.459 42.8335L133.735 42.2168L133.826 41.6249L133.529 40.098L133.58 39.337L133.962 38.7203L135.606 37.3973L135.762 37.1237L136.028 36.5219L136.219 36.2583L136.526 36.0444L137.2 35.8305L137.507 35.6366L137.909 35.1044L138.216 34.3981L138.382 33.5974L138.346 32.7817L138.427 32.2793L138.618 32.0306L138.859 31.8416L139.075 31.5283L139.251 31.0956L139.307 30.8369L139.251 29.5537L139.206 29.2454L139.221 28.9469L139.387 28.4844L139.437 28.4196L139.629 28.1461L140.232 27.6388L140.473 27.2956L140.518 27.0668V26.5744L140.549 26.3904L140.86 25.7139L141.408 24.1174L141.856 23.7742L142.821 23.63L143.214 23.3017L143.204 22.6601L143.324 21.7797L143.505 20.9143L143.696 20.2826L142.821 19.8549L140.85 19.7704L139.925 19.4918L138.648 18.2136L138.11 18.0047L136.712 18.0594L135.531 17.7013L135.344 17.5421L135.284 17.2984L135.355 17.0547V16.7861L135.078 16.4778L134.867 16.438L134.263 16.5126L134.007 16.4977L133.715 16.3683L132.896 15.8411L131.111 15.5079L130.397 14.9856L130.231 13.7721L129.909 12.4192L129.185 11.2554L128.275 10.4049L126.917 9.73341L125.992 8.88788L125.529 8.62427L125.022 8.71877L124.584 9.11667L124.227 9.53943L123.966 9.71351L123.573 9.40017L122.729 8.10203L122.301 7.67429L122.055 7.59969L121.663 7.68424L121.472 7.65937L121.215 7.48529L120.748 7.02771L120.491 6.8586L120.018 6.73923L118.213 6.93818L117.831 7.09237L117.369 7.28137L117.002 7.17195L116.061 7.37587L115.644 7.38084L113.185 6.6895L111.772 5.93847L111.425 5.85889L110.968 6.17223L110.178 7.32613L109.746 7.729L109.203 7.81853L108.821 7.55492L108.459 7.15703L108.001 6.84866L107.609 6.81384L106.588 7.01776L106.201 7.20179L105.688 7.76879L105.995 8.11695L106.578 8.46511L106.885 9.04206L106.679 9.39519L106.216 9.4897L105.683 9.49467L105.286 9.57922L104.768 10.0766L103.943 11.2753L103.395 11.7428L102.807 11.9567L102.339 11.8671L101.932 11.5737L101.52 11.1509L101.047 10.8028L100.65 10.7431L100.222 10.7679L99.6542 10.6784L99.257 10.3899L97.0144 7.73398L96.6222 7.66434L95.6668 7.81853L95.1238 7.73895L94.8925 7.75387L94.631 7.89811L94.2287 8.39051L93.9421 8.65909L93.3438 8.87296L92.7907 8.73866L90.6587 7.65937L90.2665 7.7489L90.2715 8.40543L88.9642 8.45516L87.9334 8.07219L87.6317 8.07716L87.3753 8.26616L87.2797 8.5049L87.2295 8.85803L87.0987 9.40514L86.9177 9.93733L86.792 10.1064L84.8461 10.2755L84.4639 10.4894L83.9108 11.141L83.6645 11.3698L83.1063 11.3051L83.046 11.2454L82.9052 11.4344L82.4225 12.5087L82.2767 12.9663L82.1007 13.3891L81.7889 13.7621L81.6481 15.1L81.3867 16.055L80.8939 16.433L80.0542 16.0252L78.7519 14.8116L78.053 14.4485L77.2434 14.538L76.7859 14.8762L76.2931 15.3786L75.9413 15.7418L75.3781 15.9457L74.2166 15.8612L73.578 15.6324L73.2562 15.1847V15.1798L73.3568 14.6824L74.3121 13.1356L74.4227 13.046L74.5836 13.0013L74.7295 12.9167L74.7898 12.6979L74.7445 12.5337L74.7345 12.5238L74.5434 12.3249L74.5384 12.3099L74.4982 12.2204H74.4931L74.1512 11.9667L74.0607 11.8374L74.0758 11.6783L74.2669 11.3898L74.3071 11.2356L74.1613 9.38042L74.0305 8.74378L73.7942 8.01762L73.7892 8.01265L73.5629 7.84354L72.7182 8.18175L72.2103 8.23149L71.6572 8.17181L70.2091 7.68438V7.66946L70.2644 7.22183L70.2493 6.62001L70.2845 6.41111L70.4052 6.1674L69.3945 6.15745L68.8666 6.01819L68.4341 5.68495L68.3034 5.4114L67.8961 4.19284L67.4385 2.25309L67.1318 1.47719L66.5435 1.08924L66.3524 0.88532L65.925 0.144238Z" fill="white"/>
<rect x="78.2347" y="12.773" width="12.8177" height="12.8177" rx="6.40885" fill="#EF4444"/>
</svg>
